<svg xmlns="http://www.w3.org/2000/svg" viewBox="0 0 469.99 469.99"><defs><style>.cls-1{fill:#fff;opacity:0.15;}.cls-2{fill:#008dff;}.cls-2,.cls-3{fill-rule:evenodd;}.cls-3{fill:#0a58ff;}</style></defs><g id="Layer_2" data-name="Layer 2"><g id="Layer_1-2" data-name="Layer 1"><circle class="cls-1" cx="235" cy="235" r="235"/><path class="cls-2" d="M86.76,112.42a4,4,0,0,1-4-4c0-6.48,0-18.68,0-24.25a4,4,0,0,1,2.8-3.83,123.42,123.42,0,1,1,0,235.52A4,4,0,0,1,82.72,312c0-15.72,0-90.59,0-109.29a4,4,0,0,1,1.19-2.85,4.07,4.07,0,0,1,2.86-1.17h.41a43.15,43.15,0,0,0,0-86.3Z"/><path class="cls-3" d="M383.23,357.57a4,4,0,0,1,4,4v24.25a4,4,0,0,1-2.79,3.83,123.42,123.42,0,1,1,0-235.52,4,4,0,0,1,2.79,3.82c0,15.72,0,90.59,0,109.29a4,4,0,0,1-4,4h-.4a43.15,43.15,0,1,0,0,86.3Z"/></g></g></svg>